# xmcd
#
# Track frame offsets:
#	151
#	23503
#	29685
#	43233
#	59359
#	80609
#	97867
#	107979
#	117320
#	128495
#	141756
#	148600
#	155382
#	175266
#	189232
#	200042
#
# Disc length: 2972 seconds
#
# Revision: 1
# Processed by: cddbd v1.5.2PL0 Copyright (c) Steve Scherf et al.
# Submitted via: audiograbber 1.83.01
#
DISCID=dc0b9a10
DTITLE=Marilyn Monroe - Original Songs [CD1)
DYEAR=2006
DGENRE=Entertainer
TTITLE0=My Heart Belongs To Daddy
TTITLE1=Some Like It Hot
TTITLE2=I Wanna Be Love By You
TTITLE3=Specialisation
TTITLE4=Incurably Romantic
TTITLE5=Let's Make Love
TTITLE6=The River Of No Return
TTITLE7=One Silver Dollar
TTITLE8=Down In The Meadow
TTITLE9=Every Baby Needs A Da-Da-Daddy
TTITLE10=Anyone Can See I Love You
TTITLE11=Ladies Of The Chorus
TTITLE12=Heat Wave
TTITLE13=You'd Be Surprised
TTITLE14=Alexander's Ragtime Band_There's No Business Like Show Business
TTITLE15=A Man Chases A Girl
EXTD=
EXTT0=
EXTT1=
EXTT2=
EXTT3=
EXTT4=
EXTT5=
EXTT6=
EXTT7=
EXTT8=
EXTT9=
EXTT10=
EXTT11=
EXTT12=
EXTT13=
EXTT14=
EXTT15=
PLAYORDER=
